<?xml version="1.0" standalone="no"?><!DOCTYPE svg PUBLIC "-//W3C//DTD SVG 1.1//EN" "http://www.w3.org/Graphics/SVG/1.1/DTD/svg11.dtd"><svg t="1615621494174" class="icon" viewBox="0 0 1024 1024" version="1.1" xmlns="http://www.w3.org/2000/svg" p-id="1536" xmlns:xlink="http://www.w3.org/1999/xlink" width="200" height="200"><defs><style type="text/css">:not(select) {  }</style></defs><path d="M745.472 0H278.528C125.3376 0 0 125.3376 0 278.528v466.944c0 153.1904 125.3376 278.528 278.528 278.528h466.944c153.1904 0 278.528-125.3376 278.528-278.528V278.528C1024 125.3376 898.6624 0 745.472 0zM276.48 917.504c-106.2912 0-192.512-86.2208-192.512-192.512s86.2208-192.512 192.512-192.512 192.512 86.2208 192.512 192.512-86.2208 192.512-192.512 192.512z m464.896 0c-106.2912 0-192.512-86.2208-192.512-192.512s86.2208-192.512 192.512-192.512 192.512 86.2208 192.512 192.512-86.2208 192.512-192.512 192.512z" p-id="1537"></path></svg>
